<svg width="19" height="18" viewBox="0 0 19 18" fill="none" xmlns="http://www.w3.org/2000/svg">
<path fill-rule="evenodd" clip-rule="evenodd" d="M14.9593 5.00416C14.9593 7.76788 12.3674 10.0083 9.17013 10.0083C5.97289 10.0083 3.38101 7.76788 3.38101 5.00416C3.38101 2.24044 5.97289 0 9.17013 0C12.3674 0 14.9593 2.24044 14.9593 5.00416ZM12.9456 5.00416C12.9456 6.80659 11.2553 8.26774 9.17013 8.26774C7.08497 8.26774 5.39461 6.80659 5.39461 5.00416C5.39461 3.20173 7.08497 1.74058 9.17013 1.74058C11.2553 1.74058 12.9456 3.20173 12.9456 5.00416Z" fill="white"/>
<path d="M0.0206555 17.1645C-0.0547809 17.3782 0.0830525 17.6016 0.325877 17.678L1.26541 17.9736C1.55059 18.0633 1.86093 17.9155 1.94994 17.6647C2.89727 14.9952 5.77148 13.0543 9.17012 13.0543C12.5688 13.0543 15.443 14.9952 16.3903 17.6647C16.4793 17.9155 16.7897 18.0633 17.0749 17.9736L18.0144 17.678C18.2572 17.6016 18.3951 17.3782 18.3196 17.1645C17.1237 13.7775 13.4797 11.3138 9.17012 11.3138C4.8605 11.3138 1.2166 13.7775 0.0206555 17.1645Z" fill="white"/>
</svg>
