<svg width="24" height="19" viewBox="0 0 24 19" fill="none" xmlns="http://www.w3.org/2000/svg">
<path fill-rule="evenodd" clip-rule="evenodd" d="M12.4958 0.155165C12.2086 -0.0517204 11.7914 -0.0517225 11.5042 0.155164L0.37361 8.17296C-0.36834 8.70742 0.0688723 9.75128 1.03467 9.75128H2.73162L3.14983 16.9812C3.20478 17.9313 4.11197 18.6773 5.21248 18.6773H10.1929C10.6206 18.6773 10.9674 18.3776 10.9674 18.0078V12.4291C10.9674 12.1826 11.1985 11.9828 11.4837 11.9828H12.5163C12.8015 11.9828 13.0326 12.1826 13.0326 12.4291V18.0078C13.0326 18.3776 13.3794 18.6773 13.8071 18.6773H18.7875C19.888 18.6773 20.7952 17.9313 20.8502 16.9812L21.2684 9.75128H22.9653C23.9311 9.75128 24.3683 8.70742 23.6264 8.17296L12.4958 0.155165Z" fill="white"/>
</svg>
