<svg width="21" height="19" viewBox="0 0 21 19" fill="none" xmlns="http://www.w3.org/2000/svg">
<path fill-rule="evenodd" clip-rule="evenodd" d="M14.7796 14.3995C13.2368 15.3965 11.322 15.9872 9.24749 15.9872C4.14035 15.9872 0 12.4082 0 7.99359C0 3.57894 4.14035 0 9.24749 0C14.3546 0 18.495 3.57894 18.495 7.99359C18.495 9.97486 17.6611 11.7879 16.2802 13.1845L20.8495 17.1343C21.0502 17.3077 21.0502 17.589 20.8495 17.7622L20.123 18.3904C19.9223 18.5639 19.597 18.5639 19.3965 18.3904L14.7796 14.3995ZM16.44 7.99359C16.44 11.4272 13.2198 14.2108 9.24749 14.2108C5.27521 14.2108 2.055 11.4272 2.055 7.99359C2.055 4.55993 5.27521 1.77635 9.24749 1.77635C13.2198 1.77635 16.44 4.55993 16.44 7.99359Z" fill="white"/>
</svg>
